<svg width="16" height="17" viewBox="0 0 16 17" fill="none" xmlns="http://www.w3.org/2000/svg">
<g clip-path="url(#clip0_126_46)">
<path d="M16 8.10107C16 3.68279 12.4183 0.101074 8 0.101074C3.58172 0.101074 0 3.68279 0 8.10107C0 12.094 2.92547 15.4037 6.75 16.0039V10.4136H4.71875V8.10107H6.75V6.33857C6.75 4.33357 7.94438 3.22607 9.77172 3.22607C10.6467 3.22607 11.5625 3.38232 11.5625 3.38232V5.35107H10.5538C9.56 5.35107 9.25 5.96779 9.25 6.60107V8.10107H11.4688L11.1141 10.4136H9.25V16.0039C13.0745 15.4037 16 12.094 16 8.10107Z" fill="#161722"/>
</g>
<defs>
<clipPath id="clip0_126_46">
<rect width="16" height="16" fill="white" transform="translate(0 0.101074)"/>
</clipPath>
</defs>
</svg>
