<svg width="16" height="17" viewBox="0 0 16 17" fill="none" xmlns="http://www.w3.org/2000/svg">
<g clip-path="url(#clip0_126_50)">
<path d="M14.8156 0.101074H1.18125C0.528125 0.101074 0 0.616699 0 1.2542V14.9448C0 15.5823 0.528125 16.1011 1.18125 16.1011H14.8156C15.4688 16.1011 16 15.5823 16 14.948V1.2542C16 0.616699 15.4688 0.101074 14.8156 0.101074ZM4.74687 13.7354H2.37188V6.09795H4.74687V13.7354ZM3.55938 5.05732C2.79688 5.05732 2.18125 4.4417 2.18125 3.68232C2.18125 2.92295 2.79688 2.30732 3.55938 2.30732C4.31875 2.30732 4.93437 2.92295 4.93437 3.68232C4.93437 4.43857 4.31875 5.05732 3.55938 5.05732ZM13.6344 13.7354H11.2625V10.0229C11.2625 9.13857 11.2469 7.99795 10.0281 7.99795C8.79375 7.99795 8.60625 8.96357 8.60625 9.96045V13.7354H6.2375V6.09795H8.5125V7.1417H8.54375C8.85938 6.5417 9.63438 5.90732 10.7875 5.90732C13.1906 5.90732 13.6344 7.48857 13.6344 9.54482V13.7354Z" fill="#161722"/>
</g>
<defs>
<clipPath id="clip0_126_50">
<rect width="16" height="16" fill="white" transform="translate(0 0.101074)"/>
</clipPath>
</defs>
</svg>
