<svg width="16" height="17" viewBox="0 0 16 17" fill="none" xmlns="http://www.w3.org/2000/svg">
<g clip-path="url(#clip0_126_48)">
<path d="M5.03344 14.6012C11.0697 14.6012 14.3722 9.599 14.3722 5.26244C14.3722 5.12181 14.3691 4.97806 14.3628 4.83744C15.0052 4.37284 15.5597 3.79737 16 3.13806C15.4017 3.40426 14.7664 3.57812 14.1159 3.65369C14.8009 3.24314 15.3137 2.59818 15.5594 1.83837C14.915 2.22023 14.2104 2.4896 13.4756 2.63494C12.9806 2.1089 12.326 1.76061 11.6131 1.6439C10.9003 1.52719 10.1688 1.64856 9.53183 1.98926C8.89486 2.32996 8.38787 2.871 8.08923 3.52874C7.7906 4.18647 7.71695 4.92427 7.87969 5.62806C6.575 5.56259 5.29862 5.22367 4.13332 4.63326C2.96802 4.04286 1.9398 3.21415 1.11531 2.20087C0.696266 2.92336 0.568038 3.77829 0.756687 4.59192C0.945337 5.40555 1.43671 6.11683 2.13094 6.58119C1.60975 6.56464 1.09998 6.42432 0.64375 6.17181V6.21244C0.643283 6.97063 0.905399 7.70559 1.38554 8.29238C1.86568 8.87917 2.53422 9.28157 3.2775 9.43119C2.7947 9.56328 2.28799 9.58253 1.79656 9.48744C2.0063 10.1395 2.41438 10.7098 2.96385 11.1188C3.51331 11.5277 4.17675 11.7549 4.86156 11.7687C3.69895 12.6819 2.26278 13.1773 0.784375 13.1749C0.522191 13.1745 0.260266 13.1585 0 13.1268C1.5019 14.0904 3.24902 14.6021 5.03344 14.6012Z" fill="#161722"/>
</g>
<defs>
<clipPath id="clip0_126_48">
<rect width="16" height="16" fill="white" transform="translate(0 0.101074)"/>
</clipPath>
</defs>
</svg>
