<svg width="60" height="60" viewBox="0 0 60 60" fill="none" xmlns="http://www.w3.org/2000/svg">
<path d="M26.25 20.625C26.25 20.1277 26.0525 19.6508 25.7008 19.2992C25.3492 18.9475 24.8723 18.75 24.375 18.75C23.8777 18.75 23.4008 18.9475 23.0492 19.2992C22.6975 19.6508 22.5 20.1277 22.5 20.625V39.375C22.5 39.8723 22.6975 40.3492 23.0492 40.7008C23.4008 41.0525 23.8777 41.25 24.375 41.25C24.8723 41.25 25.3492 41.0525 25.7008 40.7008C26.0525 40.3492 26.25 39.8723 26.25 39.375V20.625ZM37.5 20.625C37.5 20.1277 37.3025 19.6508 36.9508 19.2992C36.5992 18.9475 36.1223 18.75 35.625 18.75C35.1277 18.75 34.6508 18.9475 34.2992 19.2992C33.9475 19.6508 33.75 20.1277 33.75 20.625V39.375C33.75 39.8723 33.9475 40.3492 34.2992 40.7008C34.6508 41.0525 35.1277 41.25 35.625 41.25C36.1223 41.25 36.5992 41.0525 36.9508 40.7008C37.3025 40.3492 37.5 39.8723 37.5 39.375V20.625ZM30 0C22.0435 0 14.4129 3.16071 8.7868 8.7868C3.16071 14.4129 0 22.0435 0 30C0 37.9565 3.16071 45.5871 8.7868 51.2132C14.4129 56.8393 22.0435 60 30 60C37.9565 60 45.5871 56.8393 51.2132 51.2132C56.8393 45.5871 60 37.9565 60 30C60 22.0435 56.8393 14.4129 51.2132 8.7868C45.5871 3.16071 37.9565 0 30 0V0ZM3.75 30C3.75 26.5528 4.42898 23.1394 5.74816 19.9546C7.06735 16.7698 9.00091 13.876 11.4384 11.4384C13.876 9.00091 16.7698 7.06735 19.9546 5.74816C23.1394 4.42898 26.5528 3.75 30 3.75C33.4472 3.75 36.8606 4.42898 40.0454 5.74816C43.2302 7.06735 46.124 9.00091 48.5616 11.4384C50.9991 13.876 52.9327 16.7698 54.2518 19.9546C55.571 23.1394 56.25 26.5528 56.25 30C56.25 36.9619 53.4844 43.6387 48.5616 48.5616C43.6387 53.4844 36.9619 56.25 30 56.25C23.0381 56.25 16.3613 53.4844 11.4384 48.5616C6.51562 43.6387 3.75 36.9619 3.75 30Z" fill="white"/>
</svg>
