<svg width="60" height="60" viewBox="0 0 60 60" fill="none" xmlns="http://www.w3.org/2000/svg">
<path d="M51.2133 8.78672C45.5469 3.12062 38.0133 0 30 0C21.9867 0 14.4531 3.12062 8.78672 8.78672C3.12062 14.4531 0 21.9867 0 30C0 38.0133 3.12062 45.5469 8.78672 51.2133C14.4531 56.8794 21.9867 60 30 60C38.0133 60 45.5469 56.8794 51.2133 51.2133C56.8794 45.5469 60 38.0133 60 30C60 21.9867 56.8794 14.4531 51.2133 8.78672ZM30 56.2887C15.5044 56.2887 3.71134 44.4956 3.71134 30C3.71134 15.5044 15.5044 3.71134 30 3.71134C44.4956 3.71134 56.2887 15.5044 56.2887 30C56.2887 44.4956 44.4956 56.2887 30 56.2887Z" fill="white"/>
<path d="M22.3994 41.6382L42.549 30L22.3994 18.3619V41.6382Z" fill="white"/>
</svg>
