<svg width="25" height="25" viewBox="0 0 25 25" fill="none" xmlns="http://www.w3.org/2000/svg">
<path d="M4.94791 12.5002H20.0521H4.94791ZM4.94791 9.0585H20.0521H4.94791ZM4.94791 15.9418H12.9781H4.94791ZM21.0937 2.86475H3.90624C3.62998 2.86475 3.36503 2.97449 3.16968 3.16984C2.97432 3.36519 2.86458 3.63015 2.86458 3.90641V21.0939C2.86458 21.3702 2.97432 21.6351 3.16968 21.8305C3.36503 22.0258 3.62998 22.1356 3.90624 22.1356H21.0937C21.37 22.1356 21.635 22.0258 21.8303 21.8305C22.0257 21.6351 22.1354 21.3702 22.1354 21.0939V3.90641C22.1354 3.63015 22.0257 3.36519 21.8303 3.16984C21.635 2.97449 21.37 2.86475 21.0937 2.86475V2.86475Z" stroke="#0052B8" stroke-linecap="round" stroke-linejoin="round"/>
</svg>
