<svg width="21" height="21" viewBox="0 0 21 21" fill="none" xmlns="http://www.w3.org/2000/svg">
<path d="M9.40625 6.98C9.26369 6.89769 9.10197 6.85437 8.93735 6.8544C8.77273 6.85442 8.61103 6.8978 8.46849 6.98015C8.32595 7.0625 8.20762 7.18094 8.12538 7.32354C8.04314 7.46614 7.99989 7.62788 8 7.7925V13.2087C7.99989 13.3734 8.04314 13.5351 8.12538 13.6777C8.20762 13.8203 8.32595 13.9387 8.46849 14.0211C8.61103 14.1035 8.77273 14.1468 8.93735 14.1469C9.10197 14.1469 9.26369 14.1036 9.40625 14.0213L14.5625 11.0412C14.6575 10.9864 14.7364 10.9075 14.7912 10.8125C14.8461 10.7175 14.875 10.6097 14.875 10.5C14.875 10.3903 14.8461 10.2825 14.7912 10.1875C14.7364 10.0925 14.6575 10.0136 14.5625 9.95875L9.40625 6.98ZM0.5 10.5C0.5 7.84784 1.55357 5.3043 3.42893 3.42893C5.3043 1.55357 7.84784 0.5 10.5 0.5C13.1522 0.5 15.6957 1.55357 17.5711 3.42893C19.4464 5.3043 20.5 7.84784 20.5 10.5C20.5 13.1522 19.4464 15.6957 17.5711 17.5711C15.6957 19.4464 13.1522 20.5 10.5 20.5C7.84784 20.5 5.3043 19.4464 3.42893 17.5711C1.55357 15.6957 0.5 13.1522 0.5 10.5ZM10.5 1.75C9.35093 1.75 8.21312 1.97633 7.15152 2.41605C6.08992 2.85578 5.12533 3.5003 4.31282 4.31282C3.5003 5.12533 2.85578 6.08992 2.41605 7.15152C1.97633 8.21312 1.75 9.35093 1.75 10.5C1.75 11.6491 1.97633 12.7869 2.41605 13.8485C2.85578 14.9101 3.5003 15.8747 4.31282 16.6872C5.12533 17.4997 6.08992 18.1442 7.15152 18.5839C8.21312 19.0237 9.35093 19.25 10.5 19.25C12.8206 19.25 15.0462 18.3281 16.6872 16.6872C18.3281 15.0462 19.25 12.8206 19.25 10.5C19.25 8.17936 18.3281 5.95376 16.6872 4.31282C15.0462 2.67187 12.8206 1.75 10.5 1.75Z" fill="#0052B8"/>
</svg>
