<svg width="45" height="40" viewBox="0 0 45 40" fill="none" xmlns="http://www.w3.org/2000/svg">
<path d="M22.0696 0C9.93144 0 0.0563965 8.97194 0.0563965 20C0.0563965 31.0281 9.93144 40 22.0696 40C34.2077 40 44.0827 31.0281 44.0827 20C44.0827 8.97194 34.2077 0 22.0696 0ZM22.0696 37.7118C11.3202 37.7118 2.57497 29.7662 2.57497 20C2.57497 10.2338 11.3202 2.28824 22.0696 2.28824C32.819 2.28824 41.5642 10.2338 41.5642 20C41.5642 29.7662 32.819 37.7118 22.0696 37.7118Z" fill="#4E4E4E"/>
<path d="M27.168 9.14697H24.1829C21.7398 9.14697 19.7521 10.9529 19.7521 13.1726V16.2236H16.9711C16.2756 16.2236 15.7119 16.7358 15.7119 17.3677C15.7119 17.9997 16.2756 18.5119 16.9711 18.5119H19.7521V29.1055C19.7521 29.7375 20.3158 30.2497 21.0114 30.2497C21.7069 30.2497 22.2706 29.7375 22.2706 29.1055V18.5119H26.5732C27.2687 18.5119 27.8325 17.9997 27.8325 17.3677C27.8325 16.7358 27.2687 16.2236 26.5732 16.2236H22.2706V13.1726C22.2706 12.2146 23.1285 11.4352 24.1829 11.4352H27.1679C27.8634 11.4352 28.4272 10.923 28.4272 10.2911C28.4272 9.65916 27.8634 9.14697 27.168 9.14697Z" fill="#4E4E4E"/>
</svg>
