<svg width="40" height="40" viewBox="0 0 40 40" fill="none" xmlns="http://www.w3.org/2000/svg">
<path d="M19.9609 0.15625C25.3516 0.15625 26.0156 0.195312 28.125 0.273438C30.1953 0.351562 31.6406 0.703125 32.9297 1.21094C34.2578 1.71875 35.3516 2.38281 36.4453 3.47656C37.5391 4.57031 38.2031 5.66406 38.7109 6.99219C39.2188 8.28125 39.5703 9.72656 39.6484 11.7969C39.7266 13.9062 39.7656 14.5703 39.7656 19.9609C39.7656 25.3516 39.7266 26.0156 39.6484 28.125C39.5703 30.1953 39.2188 31.6406 38.7109 32.9297C38.2031 34.2578 37.5391 35.3516 36.4453 36.4453C35.3516 37.5391 34.2578 38.2031 32.9297 38.7109C31.6406 39.2188 30.1953 39.5703 28.125 39.6484C26.0156 39.7266 25.3516 39.7656 19.9609 39.7656C14.5703 39.7656 13.9062 39.7266 11.7969 39.6484C9.72656 39.5703 8.28125 39.2188 6.99219 38.7109C5.66406 38.2031 4.57031 37.5391 3.47656 36.4453C2.38281 35.3516 1.71875 34.2578 1.21094 32.9297C0.703125 31.6406 0.351562 30.1953 0.273438 28.125C0.195312 26.0156 0.15625 25.3516 0.15625 19.9609C0.15625 14.5703 0.195312 13.9062 0.273438 11.7969C0.351562 9.72656 0.703125 8.28125 1.21094 6.99219C1.71875 5.66406 2.38281 4.57031 3.47656 3.47656C4.57031 2.38281 5.66406 1.71875 6.99219 1.21094C8.28125 0.703125 9.72656 0.351562 11.7969 0.273438C13.9062 0.195312 14.5703 0.15625 19.9609 0.15625ZM19.9609 2.73438C14.3359 2.73438 13.6719 2.77344 11.4844 2.85156C9.45312 2.92969 8.32031 3.32031 7.57812 3.59375C5.66406 4.375 4.375 5.66406 3.59375 7.57812C3.32031 8.32031 2.92969 9.45312 2.85156 11.4844C2.77344 13.6719 2.73438 14.3359 2.73438 19.9609C2.73438 25.5859 2.77344 26.25 2.85156 28.4375C2.92969 30.4688 3.32031 31.6016 3.59375 32.3438C4.375 34.2578 5.66406 35.5469 7.57812 36.3281C8.32031 36.6016 9.45312 36.9922 11.4844 37.0703C13.6719 37.1484 14.3359 37.1875 19.9609 37.1875C25.5859 37.1875 26.25 37.1484 28.4375 37.0703C30.4688 36.9922 31.6016 36.6016 32.3438 36.3281C34.2578 35.5469 35.5469 34.2578 36.3281 32.3438C36.6016 31.6016 36.9922 30.4688 37.0703 28.4375C37.1484 26.25 37.1875 25.5859 37.1875 19.9609C37.1875 14.3359 37.1484 13.6719 37.0703 11.4844C36.9922 9.45312 36.6016 8.32031 36.3281 7.57812C35.5469 5.66406 34.2578 4.375 32.3438 3.59375C31.6016 3.32031 30.4688 2.92969 28.4375 2.85156C26.25 2.77344 25.5859 2.73438 19.9609 2.73438ZM19.9609 27.8906C24.3359 27.8906 27.8906 24.3359 27.8906 19.9609C27.8906 15.5859 24.3359 12.0312 19.9609 12.0312C15.5859 12.0312 12.0312 15.5859 12.0312 19.9609C12.0312 24.3359 15.5859 27.8906 19.9609 27.8906ZM19.9609 9.80469C25.5859 9.80469 30.1172 14.3359 30.1172 19.9609C30.1172 25.5859 25.5859 30.1172 19.9609 30.1172C14.3359 30.1172 9.80469 25.5859 9.80469 19.9609C9.80469 14.3359 14.3359 9.80469 19.9609 9.80469ZM32.9297 9.41406C32.9297 10.7422 31.8359 11.7578 30.5078 11.7578C29.1797 11.7578 28.1641 10.7422 28.1641 9.41406C28.1641 8.08594 29.1797 6.99219 30.5078 6.99219C31.8359 6.99219 32.9297 8.08594 32.9297 9.41406Z" fill="#4E4E4E"/>
</svg>
