<svg width="45" height="40" viewBox="0 0 45 40" fill="none" xmlns="http://www.w3.org/2000/svg">
<path d="M11.5794 21.4759H13.3247V30.0582H14.9759V21.4759H16.7536V20.0703H11.5794V21.4759Z" fill="#4E4E4E"/>
<path d="M25.5408 22.5251C24.9949 22.5251 24.4855 22.796 24.0068 23.332V20.0698H22.5227V30.0582H24.0068V29.3371C24.5036 29.8941 25.0125 30.1609 25.5408 30.1609C26.1313 30.1609 26.5285 29.8785 26.7267 29.3245C26.8263 29.009 26.8771 28.5134 26.8771 27.8247V24.8612C26.8771 24.1566 26.8263 23.6647 26.7267 23.3656C26.529 22.8074 26.1308 22.5251 25.5408 22.5251ZM25.3922 27.9303C25.3922 28.603 25.1751 28.9345 24.7463 28.9345C24.5027 28.9345 24.2545 28.8285 24.0063 28.6026V24.067C24.2545 23.8439 24.5027 23.7384 24.7463 23.7384C25.1746 23.7384 25.3922 24.0829 25.3922 24.754V27.9303Z" fill="#4E4E4E"/>
<path d="M19.7532 28.3038C19.424 28.7265 19.1127 28.9348 18.8146 28.9348C18.6164 28.9348 18.5034 28.8288 18.4673 28.6193C18.4538 28.5759 18.4538 28.4114 18.4538 28.0955V22.6162H16.9693V28.5002C16.9693 29.026 17.0193 29.3812 17.1004 29.6071C17.2494 29.9844 17.5791 30.1612 18.0566 30.1612C18.6029 30.1612 19.1632 29.8616 19.7532 29.247V30.0589H21.2386V22.6162H19.7532V28.3038Z" fill="#4E4E4E"/>
<path d="M21.0274 15.7404C21.5107 15.7404 21.7426 15.3921 21.7426 14.6965V11.5329C21.7426 10.8368 21.5107 10.4902 21.0274 10.4902C20.5437 10.4902 20.3113 10.8372 20.3113 11.5329V14.6965C20.3113 15.3925 20.5437 15.7404 21.0274 15.7404Z" fill="#4E4E4E"/>
<path d="M22.0282 0C9.87061 0 0.0150146 8.95427 0.0150146 20C0.0150146 31.0457 9.87061 40 22.0282 40C34.1858 40 44.0414 31.0457 44.0414 20C44.0414 8.95427 34.1858 0 22.0282 0ZM24.4765 9.35448H25.9723V14.8919C25.9723 15.2115 25.9723 15.3772 25.9903 15.4218C26.0232 15.6329 26.1412 15.741 26.3421 15.741C26.6421 15.741 26.9569 15.5298 27.2897 15.103V9.35448H28.7896V16.8753H27.2897V16.0552C26.6925 16.6772 26.1232 16.9788 25.576 16.9788C25.0931 16.9788 24.7598 16.8008 24.6094 16.4203C24.5265 16.1923 24.4765 15.8326 24.4765 15.3019V9.35448ZM18.8114 11.8069C18.8114 11.0028 18.9619 10.4151 19.2808 10.035C19.6956 9.52061 20.2797 9.26363 21.0274 9.26363C21.7787 9.26363 22.3624 9.52061 22.7772 10.035C23.0916 10.4147 23.242 11.0028 23.242 11.8069V14.4405C23.242 15.2401 23.0916 15.833 22.7772 16.2091C22.3624 16.7222 21.7787 16.9788 21.0274 16.9788C20.2797 16.9788 19.6956 16.7222 19.2808 16.2091C18.9619 15.833 18.8114 15.2397 18.8114 14.4405V11.8069ZM14.8002 6.78302L15.9812 10.7462L17.1157 6.78302H18.7979L16.7968 12.7881V16.8757H15.134V12.7881C14.9831 12.0638 14.6502 11.0028 14.1165 9.59509C13.7661 8.65841 13.4008 7.71887 13.0504 6.78302H14.8002ZM33.8786 30.7155C33.5777 31.9018 32.5098 32.7775 31.2239 32.908C28.1779 33.217 25.0967 33.2186 22.0268 33.217C18.9583 33.2186 15.8753 33.217 12.8302 32.908C11.5443 32.7775 10.4759 31.9022 10.176 30.7155C9.74765 29.0259 9.74765 27.1808 9.74765 25.4408C9.74765 23.7009 9.75306 21.8562 10.1809 20.1661C10.4813 18.9794 11.5488 18.1037 12.8347 17.9736C15.8803 17.6647 18.9628 17.663 22.0322 17.6647C25.1008 17.663 28.1833 17.6647 31.2289 17.9736C32.5148 18.1041 33.5831 18.9794 33.8844 20.1661C34.3114 21.8562 34.3087 23.7009 34.3087 25.4408C34.3087 27.1808 34.3069 29.0259 33.8786 30.7155Z" fill="#4E4E4E"/>
<path d="M30.2682 22.5254C29.5088 22.5254 28.9193 22.7787 28.4905 23.2882C28.1757 23.6646 28.032 24.2465 28.032 25.0416V27.6487C28.032 28.4397 28.1928 29.0256 28.509 29.3984C28.9373 29.9067 29.5287 30.1608 30.3051 30.1608C31.0803 30.1608 31.6888 29.8944 32.0995 29.3538C32.2797 29.1149 32.3968 28.8444 32.4463 28.5456C32.4603 28.4106 32.4779 28.1115 32.4779 27.6765V27.4805H30.9641C30.9641 28.0206 30.9447 28.3206 30.9316 28.3938C30.847 28.7543 30.6335 28.9344 30.2682 28.9344C29.7584 28.9344 29.5088 28.5907 29.5088 27.9024V26.5823H32.4779V25.0408C32.4779 24.2457 32.3297 23.6638 32.0184 23.2873C31.6036 22.7791 31.0132 22.5254 30.2682 22.5254ZM30.9942 25.4602H29.5097V24.7715C29.5097 24.0832 29.7588 23.7391 30.2547 23.7391C30.7456 23.7391 30.9942 24.0837 30.9942 24.7715V25.4602Z" fill="#4E4E4E"/>
</svg>
