<svg width="21" height="21" viewBox="0 0 21 21" fill="none" xmlns="http://www.w3.org/2000/svg">
<path d="M11.3402 0.839996C9.44655 0.839996 7.63046 1.61348 6.29145 2.9903C4.95244 4.36712 4.2002 6.23448 4.2002 8.1816V8.1816V8.71661C4.48926 12.7391 7.73647 15.974 11.3402 20.16C15.1029 15.7907 18.4802 12.4815 18.4802 8.1816C18.4802 6.23448 17.7279 4.36712 16.3889 2.9903C15.0499 1.61348 13.2338 0.839996 11.3402 0.839996ZM11.3402 4.65446C12.0198 4.65446 12.6841 4.86174 13.2491 5.25007C13.8141 5.6384 14.2544 6.19033 14.5143 6.83602C14.7741 7.48172 14.8419 8.19216 14.7089 8.87745C14.576 9.56274 14.2484 10.1921 13.7675 10.6859C13.2866 11.1796 12.6741 11.5157 12.0074 11.6514C11.3407 11.7871 10.6499 11.7164 10.0223 11.4484C9.3947 11.1803 8.85854 10.7268 8.48167 10.1453C8.1048 9.56377 7.90414 8.88039 7.90509 8.1816C7.90637 7.24569 8.26885 6.34856 8.91291 5.68723C9.55698 5.02591 10.43 4.65446 11.3402 4.65446Z" stroke="#0052B8" stroke-linecap="round" stroke-linejoin="round"/>
</svg>
