<svg width="17" height="16" viewBox="0 0 17 16" fill="none" xmlns="http://www.w3.org/2000/svg">
<g clip-path="url(#clip0_437_95)">
<path d="M4.5534 1.328C4.49436 1.25206 4.41985 1.18955 4.3348 1.14462C4.24975 1.0997 4.15612 1.07338 4.06012 1.06742C3.96411 1.06146 3.86794 1.076 3.77799 1.11006C3.68804 1.14413 3.60637 1.19694 3.5384 1.265L2.5044 2.3C2.0214 2.784 1.8434 3.469 2.0544 4.07C2.93014 6.55759 4.35469 8.81609 6.2224 10.678C8.08432 12.5457 10.3428 13.9702 12.8304 14.846C13.4314 15.057 14.1164 14.879 14.6004 14.396L15.6344 13.362C15.7025 13.294 15.7553 13.2124 15.7893 13.1224C15.8234 13.0324 15.8379 12.9363 15.832 12.8403C15.826 12.7443 15.7997 12.6506 15.7548 12.5656C15.7098 12.4805 15.6473 12.406 15.5714 12.347L13.2644 10.553C13.1833 10.4901 13.0889 10.4464 12.9884 10.4253C12.888 10.4041 12.784 10.4061 12.6844 10.431L10.4944 10.978C10.2021 11.0511 9.89582 11.0472 9.60544 10.9667C9.31506 10.8863 9.05046 10.7321 8.8374 10.519L6.3814 8.062C6.16817 7.84903 6.01372 7.58448 5.93311 7.2941C5.8525 7.00371 5.84846 6.6974 5.9214 6.405L6.4694 4.215C6.4943 4.11539 6.49626 4.01143 6.47513 3.91096C6.454 3.81049 6.41032 3.71613 6.3474 3.635L4.5534 1.328ZM2.7834 0.510997C2.95839 0.335947 3.16862 0.200128 3.40014 0.112559C3.63165 0.0249895 3.87914 -0.0123258 4.12618 0.00309049C4.37322 0.0185068 4.61415 0.0863019 4.83298 0.201974C5.05181 0.317646 5.24352 0.478549 5.3954 0.673997L7.1894 2.98C7.5184 3.403 7.6344 3.954 7.5044 4.474L6.9574 6.664C6.92912 6.77743 6.93064 6.89624 6.96183 7.00891C6.99302 7.12157 7.05281 7.22426 7.1354 7.307L9.5924 9.764C9.67523 9.84675 9.77809 9.90664 9.89095 9.93783C10.0038 9.96903 10.1228 9.97046 10.2364 9.942L12.4254 9.395C12.682 9.33084 12.9499 9.32585 13.2087 9.38042C13.4675 9.43499 13.7105 9.54769 13.9194 9.71L16.2254 11.504C17.0544 12.149 17.1304 13.374 16.3884 14.115L15.3544 15.149C14.6144 15.889 13.5084 16.214 12.4774 15.851C9.83858 14.9225 7.44267 13.4118 5.4674 11.431C3.48669 9.45601 1.976 7.06046 1.0474 4.422C0.685397 3.392 1.0104 2.285 1.7504 1.545L2.7844 0.510997H2.7834Z" fill="#0052B8"/>
</g>
<defs>
<clipPath id="clip0_437_95">
<rect width="16" height="16" fill="white" transform="translate(0.899414)"/>
</clipPath>
</defs>
</svg>
