<svg width="22" height="22" viewBox="0 0 22 22" fill="none" xmlns="http://www.w3.org/2000/svg">
<path d="M11 0C8.03213 0.0557704 5.20752 1.28634 3.14569 3.42181C1.08385 5.55728 -0.0468776 8.42331 0.00149022 11.3913V21.997H4.08665C4.65626 22.0097 5.20765 21.796 5.61998 21.4028C6.03231 21.0096 6.27194 20.469 6.28635 19.8994V14.6673C6.27194 14.0977 6.03231 13.5571 5.61998 13.1639C5.20765 12.7707 4.65626 12.5571 4.08665 12.5697H1.57271V11.3913C1.52427 8.83999 2.48944 6.37355 4.25663 4.53273C6.02382 2.69191 8.44882 1.62691 11 1.57122C13.5512 1.62691 15.9762 2.69191 17.7434 4.53273C19.5106 6.37355 20.4757 8.83999 20.4273 11.3913V12.5697H17.9133C17.3437 12.5571 16.7924 12.7707 16.38 13.1639C15.9677 13.5571 15.7281 14.0977 15.7136 14.6673V19.9073C15.7301 20.4755 15.9706 21.0141 16.3827 21.4056C16.7948 21.7971 17.3451 22.0097 17.9133 21.997H21.9985V11.3913C22.0469 8.42331 20.9161 5.55728 18.8543 3.42181C16.7925 1.28634 13.9679 0.0557704 11 0V0ZM4.08665 14.1409C4.23925 14.1299 4.39015 14.1787 4.50744 14.2769C4.62473 14.3751 4.69922 14.5151 4.71514 14.6673V19.9073C4.69922 20.0595 4.62473 20.1995 4.50744 20.2977C4.39015 20.3959 4.23925 20.4447 4.08665 20.4337H1.57271V14.1409H4.08665ZM17.2849 19.8994V14.6673C17.3008 14.5151 17.3753 14.3751 17.4926 14.2769C17.6099 14.1787 17.7608 14.1299 17.9133 14.1409H20.4273V20.4258H17.9133C17.7608 20.4368 17.6099 20.3881 17.4926 20.2898C17.3753 20.1916 17.3008 20.0516 17.2849 19.8994V19.8994Z" fill="#0052B8"/>
</svg>
