<svg width="30" height="30" viewBox="0 0 30 30" fill="none" xmlns="http://www.w3.org/2000/svg">
<path d="M13.6875 10.776C13.5164 10.6772 13.3224 10.6252 13.1248 10.6253C12.9273 10.6253 12.7332 10.6774 12.5622 10.7762C12.3911 10.875 12.2491 11.0171 12.1505 11.1882C12.0518 11.3594 11.9999 11.5535 12 11.751V18.2505C11.9999 18.448 12.0518 18.6421 12.1505 18.8133C12.2491 18.9844 12.3911 19.1265 12.5622 19.2253C12.7332 19.3241 12.9273 19.3762 13.1248 19.3762C13.3224 19.3763 13.5164 19.3243 13.6875 19.2255L19.875 15.6495C19.989 15.5837 20.0837 15.489 20.1495 15.375C20.2153 15.261 20.25 15.1316 20.25 15C20.25 14.8684 20.2153 14.739 20.1495 14.625C20.0837 14.511 19.989 14.4163 19.875 14.3505L13.6875 10.776ZM3 15C3 11.8174 4.26428 8.76516 6.51472 6.51472C8.76516 4.26428 11.8174 3 15 3C18.1826 3 21.2348 4.26428 23.4853 6.51472C25.7357 8.76516 27 11.8174 27 15C27 18.1826 25.7357 21.2348 23.4853 23.4853C21.2348 25.7357 18.1826 27 15 27C11.8174 27 8.76516 25.7357 6.51472 23.4853C4.26428 21.2348 3 18.1826 3 15ZM15 4.5C13.6211 4.5 12.2557 4.77159 10.9818 5.29926C9.70791 5.82694 8.55039 6.60036 7.57538 7.57538C6.60036 8.55039 5.82694 9.70791 5.29926 10.9818C4.77159 12.2557 4.5 13.6211 4.5 15C4.5 16.3789 4.77159 17.7443 5.29926 19.0182C5.82694 20.2921 6.60036 21.4496 7.57538 22.4246C8.55039 23.3996 9.70791 24.1731 10.9818 24.7007C12.2557 25.2284 13.6211 25.5 15 25.5C17.7848 25.5 20.4555 24.3938 22.4246 22.4246C24.3938 20.4555 25.5 17.7848 25.5 15C25.5 12.2152 24.3938 9.54451 22.4246 7.57538C20.4555 5.60625 17.7848 4.5 15 4.5Z" fill="#0052B8"/>
</svg>
