<svg width="25" height="23" viewBox="0 0 25 23" fill="none" xmlns="http://www.w3.org/2000/svg">
<path d="M0.78125 14.4688C0.98845 14.4688 1.18716 14.5511 1.33368 14.6976C1.48019 14.8441 1.5625 15.0428 1.5625 15.25V19.1562C1.5625 19.5707 1.72712 19.9681 2.02015 20.2611C2.31317 20.5541 2.7106 20.7188 3.125 20.7188H21.875C22.2894 20.7188 22.6868 20.5541 22.9799 20.2611C23.2729 19.9681 23.4375 19.5707 23.4375 19.1562V15.25C23.4375 15.0428 23.5198 14.8441 23.6663 14.6976C23.8128 14.5511 24.0115 14.4688 24.2188 14.4688C24.426 14.4688 24.6247 14.5511 24.7712 14.6976C24.9177 14.8441 25 15.0428 25 15.25V19.1562C25 19.9851 24.6708 20.7799 24.0847 21.366C23.4987 21.952 22.7038 22.2812 21.875 22.2812H3.125C2.2962 22.2812 1.50134 21.952 0.915291 21.366C0.32924 20.7799 0 19.9851 0 19.1562V15.25C0 15.0428 0.08231 14.8441 0.228823 14.6976C0.375336 14.5511 0.57405 14.4688 0.78125 14.4688Z" fill="#0052B8"/>
<path d="M11.9469 17.5219C12.0195 17.5946 12.1057 17.6524 12.2006 17.6917C12.2955 17.7311 12.3972 17.7514 12.5 17.7514C12.6028 17.7514 12.7045 17.7311 12.7994 17.6917C12.8944 17.6524 12.9806 17.5946 13.0531 17.5219L17.7406 12.8344C17.8873 12.6877 17.9697 12.4887 17.9697 12.2812C17.9697 12.0738 17.8873 11.8748 17.7406 11.7281C17.5939 11.5814 17.395 11.499 17.1875 11.499C16.98 11.499 16.7811 11.5814 16.6344 11.7281L13.2813 15.0828V1.34375C13.2813 1.13655 13.199 0.937836 13.0524 0.791323C12.9059 0.64481 12.7072 0.5625 12.5 0.5625C12.2928 0.5625 12.0941 0.64481 11.9476 0.791323C11.8011 0.937836 11.7188 1.13655 11.7188 1.34375V15.0828L8.36564 11.7281C8.21894 11.5814 8.01997 11.499 7.81251 11.499C7.60505 11.499 7.40608 11.5814 7.25939 11.7281C7.11269 11.8748 7.03027 12.0738 7.03027 12.2812C7.03027 12.4887 7.11269 12.6877 7.25939 12.8344L11.9469 17.5219Z" fill="#0052B8"/>
</svg>
